<svg version="1.1" xmlns="http://www.w3.org/2000/svg" viewBox="0 0 569.78947368421 162.10526315789548" width="569.78947368421" height="162.10526315789548">
  <!-- svg-source:excalidraw -->
  
  <defs>
    <style>
      @font-face {
        font-family: "Virgil";
        src: url("https://excalidraw.com/FG_Virgil.woff2");
      }
      @font-face {
        font-family: "Cascadia";
        src: url("https://excalidraw.com/Cascadia.woff2");
      }
    </style>
  </defs>
  <rect x="0" y="0" width="569.78947368421" height="162.10526315789548" fill="#ffffff"></rect><g stroke-opacity="0.7" fill-opacity="0.7" transform="translate(387.4210526315785 10) rotate(0 86.18421052631572 69.73684210526312)"><path d="M0 0 L172.36842105263145 0 L172.36842105263145 139.47368421052624 L0 139.47368421052624" stroke="none" stroke-width="0" fill="#f4f4f4"></path><path d="M0 0 C48.89867396633088 0, 97.79734793266176 0, 172.36842105263145 0 M0 0 C36.172494936342275 0, 72.34498987268455 0, 172.36842105263145 0 M172.36842105263145 0 C172.36842105263145 40.65296930898175, 172.36842105263145 81.3059386179635, 172.36842105263145 139.47368421052624 M172.36842105263145 0 C172.36842105263145 42.29719693527408, 172.36842105263145 84.59439387054816, 172.36842105263145 139.47368421052624 M172.36842105263145 139.47368421052624 C116.95404369678143 139.47368421052624, 61.539666340931404 139.47368421052624, 0 139.47368421052624 M172.36842105263145 139.47368421052624 C135.92233471082218 139.47368421052624, 99.47624836901294 139.47368421052624, 0 139.47368421052624 M0 139.47368421052624 C0 98.8406601214879, 0 58.20763603244954, 0 0 M0 139.47368421052624 C0 86.408815213332, 0 33.343946216137766, 0 0" stroke="#000000" stroke-width="1" fill="none"></path></g><g stroke-opacity="0.7" fill-opacity="0.7" transform="translate(10 12.631578947369235) rotate(0 86.18421052631572 69.73684210526312)"><path d="M0 0 L172.36842105263145 0 L172.36842105263145 139.47368421052624 L0 139.47368421052624" stroke="none" stroke-width="0" fill="#f4f4f4"></path><path d="M0 0 C54.66923257336016 0, 109.33846514672032 0, 172.36842105263145 0 M0 0 C47.69312767507995 0, 95.3862553501599 0, 172.36842105263145 0 M172.36842105263145 0 C172.36842105263145 38.84179565271263, 172.36842105263145 77.68359130542525, 172.36842105263145 139.47368421052624 M172.36842105263145 0 C172.36842105263145 49.97818763514881, 172.36842105263145 99.95637527029761, 172.36842105263145 139.47368421052624 M172.36842105263145 139.47368421052624 C109.80583766475311 139.47368421052624, 47.24325427687478 139.47368421052624, 0 139.47368421052624 M172.36842105263145 139.47368421052624 C119.85918217681731 139.47368421052624, 67.34994330100318 139.47368421052624, 0 139.47368421052624 M0 139.47368421052624 C0 105.44370113430833, 0 71.41371805809042, 0 0 M0 139.47368421052624 C0 91.04050957646805, 0 42.60733494240985, 0 0" stroke="#000000" stroke-width="1" fill="none"></path></g><g><g stroke-opacity="0.7" fill-opacity="0.7" transform="translate(186.97368421052624 85.61349828740504) rotate(0 97.36842105263145 -0.6444092753199584)"><path d="M0 0 C32.45614035087715 -0.21480309177331947, 162.28070175438575 -1.0740154588665973, 194.7368421052629 -1.2888185506399168 M0 0 C32.45614035087715 -0.21480309177331947, 162.28070175438575 -1.0740154588665973, 194.7368421052629 -1.2888185506399168" stroke="#000000" stroke-width="2" fill="none"></path></g><g stroke-opacity="0.7" fill-opacity="0.7" transform="translate(186.97368421052624 85.61349828740504) rotate(0 97.36842105263145 -0.6444092753199584)"><path d="M166.61458669161803 9.158130786354171 C172.97847990783043 6.794050486324121, 179.3423731240428 4.429970186294072, 194.7368421052629 -1.2888185506399168 M166.61458669161803 9.158130786354171 C172.6808804365962 6.904603731537579, 178.74717418157437 4.651076676720986, 194.7368421052629 -1.2888185506399168" stroke="#000000" stroke-width="2" fill="none"></path></g><g stroke-opacity="0.7" fill-opacity="0.7" transform="translate(186.97368421052624 85.61349828740504) rotate(0 97.36842105263145 -0.6444092753199584)"><path d="M166.47877502482484 -11.36262839982123 C172.87340158487027 -9.082987267996748, 179.2680281449157 -6.803346136172265, 194.7368421052629 -1.2888185506399168 M166.47877502482484 -11.36262839982123 C172.57436490742228 -9.189591821590833, 178.66995479001974 -7.016555243360435, 194.7368421052629 -1.2888185506399168" stroke="#000000" stroke-width="2" fill="none"></path></g></g><g stroke-opacity="0.7" fill-opacity="0.7" transform="translate(429.4999999999998 63.28947368421041) rotate(0 43 18)"><text x="43" y="25" font-family="Virgil, Segoe UI Emoji" font-size="28px" fill="#000000" text-anchor="middle" style="white-space: pre;" direction="ltr">Binary</text></g><g stroke-opacity="0.7" fill-opacity="0.7" transform="translate(44.18421052631584 44.236842105263804) rotate(0 52 35.5)"><text x="52" y="25.5" font-family="Virgil, Segoe UI Emoji" font-size="28px" fill="#000000" text-anchor="middle" style="white-space: pre;" direction="ltr">Source </text><text x="52" y="61" font-family="Virgil, Segoe UI Emoji" font-size="28px" fill="#000000" text-anchor="middle" style="white-space: pre;" direction="ltr">Code</text></g><g stroke-opacity="0.7" fill-opacity="0.7" transform="translate(215.6842105263156 52.76315789473665) rotate(0 55.5 18)"><text x="55.5" y="25" font-family="Virgil, Segoe UI Emoji" font-size="28px" fill="#000000" text-anchor="middle" style="white-space: pre;" direction="ltr">Compiler</text></g></svg>