<svg version="1.1" xmlns="http://www.w3.org/2000/svg" viewBox="0 0 441.0526315789473 617.3684210526317" width="882.1052631578946" height="1234.7368421052633">
  <!-- svg-source:excalidraw -->
  
  <defs>
    <style>
      @font-face {
        font-family: "Virgil";
        src: url("https://excalidraw.com/FG_Virgil.woff2");
      }
      @font-face {
        font-family: "Cascadia";
        src: url("https://excalidraw.com/Cascadia.woff2");
      }
    </style>
  </defs>
  <rect x="0" y="0" width="441.0526315789473" height="617.3684210526317" fill="#ffffff"></rect><g stroke-opacity="0.7" fill-opacity="0.7" transform="translate(10 200.18421052631766) rotate(0 71.05263157894737 73.02631578947353)"><path d="M71.05263157894737 0 C81.12286280045045 -1.088397581647713, 93.37408364779735 2.8463678384758238, 102.85336175211499 7.722460890610719 C112.33263985643264 12.598553942745614, 121.57483601315417 20.53565627338675, 127.92830020485323 29.256558312809375 C134.2817643965523 37.977460352232, 139.09024177071075 49.3266156841125, 140.97414690230934 60.04787312714649 C142.85805203390794 70.76913057018048, 142.21582714320968 83.13001493119748, 139.2317309944449 93.58410297101331 C136.2476348456801 104.03819101082914, 130.29053698803722 114.79650173435202, 123.06957000972054 122.77240136604142 C115.84860303140387 130.7483009977308, 105.83654665628167 137.6286765811759, 95.90592912454487 141.4395007611497 C85.97531159280807 145.2503249411235, 74.02582687972073 146.79757951672647, 63.48586481929975 145.63734644588413 C52.94590275887877 144.4771133750418, 41.58628216020192 140.36400565125626, 32.66615676201902 134.47810233609565 C23.746031363836124 128.59219902093503, 15.37881223496246 119.68864317027302, 9.965112430202375 110.32192655492047 C4.551412625442288 100.95520993956791, 0.9462453119315354 89.14429046658873, 0.1839579334585011 78.27780264398025 C-0.5783294450145332 67.41131482137177, 1.3410408342375462 55.19101790341951, 5.391388159364169 45.12299961926965 C9.441735484490792 35.05498133511979, 16.479700327451486 25.00987567185599, 24.48604188421824 17.86969293908109 C32.492383440984995 10.729510206306191, 45.66833921750983 5.260185379133773, 53.429437499964685 2.281903222620258 C61.19053578241954 -0.6963789338932571, 68.11543256578358 0.13689615113846543, 71.05263157894736 0 C73.98983059211113 -0.13689615113846543, 71.05263157894737 0.24342105263157277, 71.05263157894737 1.4605263157894655 M71.05263157894737 0 C81.12286280045045 -1.088397581647713, 93.37408364779735 2.8463678384758238, 102.85336175211499 7.722460890610719 C112.33263985643264 12.598553942745614, 121.57483601315417 20.53565627338675, 127.92830020485323 29.256558312809375 C134.2817643965523 37.977460352232, 139.09024177071075 49.3266156841125, 140.97414690230934 60.04787312714649 C142.85805203390794 70.76913057018048, 142.21582714320968 83.13001493119748, 139.2317309944449 93.58410297101331 C136.2476348456801 104.03819101082914, 130.29053698803722 114.79650173435202, 123.06957000972054 122.77240136604142 C115.84860303140387 130.7483009977308, 105.83654665628167 137.6286765811759, 95.90592912454487 141.4395007611497 C85.97531159280807 145.2503249411235, 74.02582687972073 146.79757951672647, 63.48586481929975 145.63734644588413 C52.94590275887877 144.4771133750418, 41.58628216020192 140.36400565125626, 32.66615676201902 134.47810233609565 C23.746031363836124 128.59219902093503, 15.37881223496246 119.68864317027302, 9.965112430202375 110.32192655492047 C4.551412625442288 100.95520993956791, 0.9462453119315354 89.14429046658873, 0.1839579334585011 78.27780264398025 C-0.5783294450145332 67.41131482137177, 1.3410408342375462 55.19101790341951, 5.391388159364169 45.12299961926965 C9.441735484490792 35.05498133511979, 16.479700327451486 25.00987567185599, 24.48604188421824 17.86969293908109 C32.492383440984995 10.729510206306191, 45.66833921750983 5.260185379133773, 53.429437499964685 2.281903222620258 C61.19053578241954 -0.6963789338932571, 68.11543256578358 0.13689615113846543, 71.05263157894736 0 C73.98983059211113 -0.13689615113846543, 71.05263157894737 0.24342105263157277, 71.05263157894737 1.4605263157894655" stroke="none" stroke-width="0" fill="#f4f4f4"></path><path d="M71.05263157894737 0 C81.12286280045045 -1.088397581647713, 93.37408364779735 2.8463678384758238, 102.85336175211499 7.722460890610719 C112.33263985643264 12.598553942745614, 121.57483601315417 20.53565627338675, 127.92830020485323 29.256558312809375 C134.2817643965523 37.977460352232, 139.09024177071075 49.3266156841125, 140.97414690230934 60.04787312714649 C142.85805203390794 70.76913057018048, 142.21582714320968 83.13001493119748, 139.2317309944449 93.58410297101331 C136.2476348456801 104.03819101082914, 130.29053698803722 114.79650173435202, 123.06957000972054 122.77240136604142 C115.84860303140387 130.7483009977308, 105.83654665628167 137.6286765811759, 95.90592912454487 141.4395007611497 C85.97531159280807 145.2503249411235, 74.02582687972073 146.79757951672647, 63.48586481929975 145.63734644588413 C52.94590275887877 144.4771133750418, 41.58628216020192 140.36400565125626, 32.66615676201902 134.47810233609565 C23.746031363836124 128.59219902093503, 15.37881223496246 119.68864317027302, 9.965112430202375 110.32192655492047 C4.551412625442288 100.95520993956791, 0.9462453119315354 89.14429046658873, 0.1839579334585011 78.27780264398025 C-0.5783294450145332 67.41131482137177, 1.3410408342375462 55.19101790341951, 5.391388159364169 45.12299961926965 C9.441735484490792 35.05498133511979, 16.479700327451486 25.00987567185599, 24.48604188421824 17.86969293908109 C32.492383440984995 10.729510206306191, 45.66833921750983 5.260185379133773, 53.429437499964685 2.281903222620258 C61.19053578241954 -0.6963789338932571, 68.11543256578358 0.13689615113846543, 71.05263157894736 0 C73.98983059211113 -0.13689615113846543, 71.05263157894737 0.24342105263157277, 71.05263157894737 1.4605263157894655 M71.05263157894737 0 C81.12286280045045 -1.088397581647713, 93.37408364779735 2.8463678384758238, 102.85336175211499 7.722460890610719 C112.33263985643264 12.598553942745614, 121.57483601315417 20.53565627338675, 127.92830020485323 29.256558312809375 C134.2817643965523 37.977460352232, 139.09024177071075 49.3266156841125, 140.97414690230934 60.04787312714649 C142.85805203390794 70.76913057018048, 142.21582714320968 83.13001493119748, 139.2317309944449 93.58410297101331 C136.2476348456801 104.03819101082914, 130.29053698803722 114.79650173435202, 123.06957000972054 122.77240136604142 C115.84860303140387 130.7483009977308, 105.83654665628167 137.6286765811759, 95.90592912454487 141.4395007611497 C85.97531159280807 145.2503249411235, 74.02582687972073 146.79757951672647, 63.48586481929975 145.63734644588413 C52.94590275887877 144.4771133750418, 41.58628216020192 140.36400565125626, 32.66615676201902 134.47810233609565 C23.746031363836124 128.59219902093503, 15.37881223496246 119.68864317027302, 9.965112430202375 110.32192655492047 C4.551412625442288 100.95520993956791, 0.9462453119315354 89.14429046658873, 0.1839579334585011 78.27780264398025 C-0.5783294450145332 67.41131482137177, 1.3410408342375462 55.19101790341951, 5.391388159364169 45.12299961926965 C9.441735484490792 35.05498133511979, 16.479700327451486 25.00987567185599, 24.48604188421824 17.86969293908109 C32.492383440984995 10.729510206306191, 45.66833921750983 5.260185379133773, 53.429437499964685 2.281903222620258 C61.19053578241954 -0.6963789338932571, 68.11543256578358 0.13689615113846543, 71.05263157894736 0 C73.98983059211113 -0.13689615113846543, 71.05263157894737 0.24342105263157277, 71.05263157894737 1.4605263157894655" stroke="#000000" stroke-width="2" fill="none"></path></g><g stroke-opacity="0.7" fill-opacity="0.7" transform="translate(288.9473684210525 195.57894736842127) rotate(0 71.0526315789474 73.02631578947353)"><path d="M71.05263157894737 0 C81.12286280045045 -1.088397581647713, 93.37408364779735 2.8463678384758238, 102.85336175211499 7.722460890610719 C112.33263985643264 12.598553942745614, 121.57483601315417 20.53565627338675, 127.92830020485323 29.256558312809375 C134.2817643965523 37.977460352232, 139.09024177071075 49.3266156841125, 140.97414690230934 60.04787312714649 C142.85805203390794 70.76913057018048, 142.21582714320968 83.13001493119748, 139.2317309944449 93.58410297101331 C136.2476348456801 104.03819101082914, 130.29053698803722 114.79650173435202, 123.06957000972054 122.77240136604142 C115.84860303140387 130.7483009977308, 105.83654665628167 137.6286765811759, 95.90592912454487 141.4395007611497 C85.97531159280807 145.2503249411235, 74.02582687972073 146.79757951672647, 63.48586481929975 145.63734644588413 C52.94590275887877 144.4771133750418, 41.58628216020192 140.36400565125626, 32.66615676201902 134.47810233609565 C23.746031363836124 128.59219902093503, 15.37881223496246 119.68864317027302, 9.965112430202375 110.32192655492047 C4.551412625442288 100.95520993956791, 0.9462453119315354 89.14429046658873, 0.1839579334585011 78.27780264398025 C-0.5783294450145332 67.41131482137177, 1.3410408342375462 55.19101790341951, 5.391388159364169 45.12299961926965 C9.441735484490792 35.05498133511979, 16.479700327451486 25.00987567185599, 24.48604188421824 17.86969293908109 C32.492383440984995 10.729510206306191, 45.66833921750983 5.260185379133773, 53.429437499964685 2.281903222620258 C61.19053578241954 -0.6963789338932571, 68.11543256578358 0.13689615113846543, 71.05263157894736 0 C73.98983059211113 -0.13689615113846543, 71.05263157894737 0.24342105263157277, 71.05263157894737 1.4605263157894655 M71.05263157894737 0 C81.12286280045045 -1.088397581647713, 93.37408364779735 2.8463678384758238, 102.85336175211499 7.722460890610719 C112.33263985643264 12.598553942745614, 121.57483601315417 20.53565627338675, 127.92830020485323 29.256558312809375 C134.2817643965523 37.977460352232, 139.09024177071075 49.3266156841125, 140.97414690230934 60.04787312714649 C142.85805203390794 70.76913057018048, 142.21582714320968 83.13001493119748, 139.2317309944449 93.58410297101331 C136.2476348456801 104.03819101082914, 130.29053698803722 114.79650173435202, 123.06957000972054 122.77240136604142 C115.84860303140387 130.7483009977308, 105.83654665628167 137.6286765811759, 95.90592912454487 141.4395007611497 C85.97531159280807 145.2503249411235, 74.02582687972073 146.79757951672647, 63.48586481929975 145.63734644588413 C52.94590275887877 144.4771133750418, 41.58628216020192 140.36400565125626, 32.66615676201902 134.47810233609565 C23.746031363836124 128.59219902093503, 15.37881223496246 119.68864317027302, 9.965112430202375 110.32192655492047 C4.551412625442288 100.95520993956791, 0.9462453119315354 89.14429046658873, 0.1839579334585011 78.27780264398025 C-0.5783294450145332 67.41131482137177, 1.3410408342375462 55.19101790341951, 5.391388159364169 45.12299961926965 C9.441735484490792 35.05498133511979, 16.479700327451486 25.00987567185599, 24.48604188421824 17.86969293908109 C32.492383440984995 10.729510206306191, 45.66833921750983 5.260185379133773, 53.429437499964685 2.281903222620258 C61.19053578241954 -0.6963789338932571, 68.11543256578358 0.13689615113846543, 71.05263157894736 0 C73.98983059211113 -0.13689615113846543, 71.05263157894737 0.24342105263157277, 71.05263157894737 1.4605263157894655" stroke="none" stroke-width="0" fill="#f4f4f4"></path><path d="M71.05263157894737 0 C81.12286280045045 -1.088397581647713, 93.37408364779735 2.8463678384758238, 102.85336175211499 7.722460890610719 C112.33263985643264 12.598553942745614, 121.57483601315417 20.53565627338675, 127.92830020485323 29.256558312809375 C134.2817643965523 37.977460352232, 139.09024177071075 49.3266156841125, 140.97414690230934 60.04787312714649 C142.85805203390794 70.76913057018048, 142.21582714320968 83.13001493119748, 139.2317309944449 93.58410297101331 C136.2476348456801 104.03819101082914, 130.29053698803722 114.79650173435202, 123.06957000972054 122.77240136604142 C115.84860303140387 130.7483009977308, 105.83654665628167 137.6286765811759, 95.90592912454487 141.4395007611497 C85.97531159280807 145.2503249411235, 74.02582687972073 146.79757951672647, 63.48586481929975 145.63734644588413 C52.94590275887877 144.4771133750418, 41.58628216020192 140.36400565125626, 32.66615676201902 134.47810233609565 C23.746031363836124 128.59219902093503, 15.37881223496246 119.68864317027302, 9.965112430202375 110.32192655492047 C4.551412625442288 100.95520993956791, 0.9462453119315354 89.14429046658873, 0.1839579334585011 78.27780264398025 C-0.5783294450145332 67.41131482137177, 1.3410408342375462 55.19101790341951, 5.391388159364169 45.12299961926965 C9.441735484490792 35.05498133511979, 16.479700327451486 25.00987567185599, 24.48604188421824 17.86969293908109 C32.492383440984995 10.729510206306191, 45.66833921750983 5.260185379133773, 53.429437499964685 2.281903222620258 C61.19053578241954 -0.6963789338932571, 68.11543256578358 0.13689615113846543, 71.05263157894736 0 C73.98983059211113 -0.13689615113846543, 71.05263157894737 0.24342105263157277, 71.05263157894737 1.4605263157894655 M71.05263157894737 0 C81.12286280045045 -1.088397581647713, 93.37408364779735 2.8463678384758238, 102.85336175211499 7.722460890610719 C112.33263985643264 12.598553942745614, 121.57483601315417 20.53565627338675, 127.92830020485323 29.256558312809375 C134.2817643965523 37.977460352232, 139.09024177071075 49.3266156841125, 140.97414690230934 60.04787312714649 C142.85805203390794 70.76913057018048, 142.21582714320968 83.13001493119748, 139.2317309944449 93.58410297101331 C136.2476348456801 104.03819101082914, 130.29053698803722 114.79650173435202, 123.06957000972054 122.77240136604142 C115.84860303140387 130.7483009977308, 105.83654665628167 137.6286765811759, 95.90592912454487 141.4395007611497 C85.97531159280807 145.2503249411235, 74.02582687972073 146.79757951672647, 63.48586481929975 145.63734644588413 C52.94590275887877 144.4771133750418, 41.58628216020192 140.36400565125626, 32.66615676201902 134.47810233609565 C23.746031363836124 128.59219902093503, 15.37881223496246 119.68864317027302, 9.965112430202375 110.32192655492047 C4.551412625442288 100.95520993956791, 0.9462453119315354 89.14429046658873, 0.1839579334585011 78.27780264398025 C-0.5783294450145332 67.41131482137177, 1.3410408342375462 55.19101790341951, 5.391388159364169 45.12299961926965 C9.441735484490792 35.05498133511979, 16.479700327451486 25.00987567185599, 24.48604188421824 17.86969293908109 C32.492383440984995 10.729510206306191, 45.66833921750983 5.260185379133773, 53.429437499964685 2.281903222620258 C61.19053578241954 -0.6963789338932571, 68.11543256578358 0.13689615113846543, 71.05263157894736 0 C73.98983059211113 -0.13689615113846543, 71.05263157894737 0.24342105263157277, 71.05263157894737 1.4605263157894655" stroke="#000000" stroke-width="2" fill="none"></path></g><g><g stroke-opacity="0.7" fill-opacity="0.7" transform="translate(322.5995169881995 334.0084198062441) rotate(0 -31.144429976418337 69.77980818757055)"><path d="M0 0 C-10.381476658806113 23.25993606252352, -51.90738329403056 116.29968031261758, -62.288859952836674 139.5596163751411 M0 0 C-10.381476658806113 23.25993606252352, -51.90738329403056 116.29968031261758, -62.288859952836674 139.5596163751411" stroke="#000000" stroke-width="2" fill="none"></path></g><g stroke-opacity="0.7" fill-opacity="0.7" transform="translate(322.5995169881995 334.0084198062441) rotate(0 -31.144429976418337 69.77980818757055)"><path d="M-60.168811599693846 109.63462021841059 C-60.778632418837866 118.24238882997379, -61.38845323798189 126.850157441537, -62.288859952836674 139.5596163751411 M-60.168811599693846 109.63462021841059 C-60.698266861998675 117.10800952396359, -61.22772212430351 124.58139882951659, -62.288859952836674 139.5596163751411" stroke="#000000" stroke-width="2" fill="none"></path></g><g stroke-opacity="0.7" fill-opacity="0.7" transform="translate(322.5995169881995 334.0084198062441) rotate(0 -31.144429976418337 69.77980818757055)"><path d="M-41.42939194330439 117.99848017225747 C-47.42950880366946 124.20042821812476, -53.42962566403453 130.40237626399204, -62.288859952836674 139.5596163751411 M-41.42939194330439 117.99848017225747 C-46.63878025284646 123.38310123854826, -51.84816856238854 128.76772230483905, -62.288859952836674 139.5596163751411" stroke="#000000" stroke-width="2" fill="none"></path></g></g><g><g stroke-opacity="0.7" fill-opacity="0.7" transform="translate(132.97672743797716 333.46411077136145) rotate(0 29.075673321363354 65.84463315074277)"><path d="M0 0 C9.691891107121117 21.94821105024759, 48.45945553560559 109.74105525123794, 58.15134664272671 131.68926630148553 M0 0 C9.691891107121117 21.94821105024759, 48.45945553560559 109.74105525123794, 58.15134664272671 131.68926630148553" stroke="#000000" stroke-width="2" fill="none"></path></g><g stroke-opacity="0.7" fill-opacity="0.7" transform="translate(132.97672743797716 333.46411077136145) rotate(0 29.075673321363354 65.84463315074277)"><path d="M37.377494373476054 110.04562839342235 C42.40643237211855 115.28512426034104, 47.43537037076104 120.52462012725971, 58.15134664272671 131.68926630148553 M37.377494373476054 110.04562839342235 C44.18836857571958 117.14166879845239, 50.999242777963104 124.23770920348241, 58.15134664272671 131.68926630148553" stroke="#000000" stroke-width="2" fill="none"></path></g><g stroke-opacity="0.7" fill-opacity="0.7" transform="translate(132.97672743797716 333.46411077136145) rotate(0 29.075673321363354 65.84463315074277)"><path d="M56.14991482553758 101.75610290900156 C56.63442180992838 109.00232863800868, 57.11892879431917 116.24855436701581, 58.15134664272671 131.68926630148553 M56.14991482553758 101.75610290900156 C56.80610031076027 111.56993077775839, 57.462285795982964 121.38375864651522, 58.15134664272671 131.68926630148553" stroke="#000000" stroke-width="2" fill="none"></path></g></g><g stroke-opacity="0.7" fill-opacity="0.7" transform="translate(152.10526315789474 461.3157894736846) rotate(0 71.05263157894737 73.02631578947353)"><path d="M71.05263157894737 0 C81.12286280045045 -1.088397581647713, 93.37408364779735 2.8463678384758238, 102.85336175211499 7.722460890610719 C112.33263985643264 12.598553942745614, 121.57483601315417 20.53565627338675, 127.92830020485323 29.256558312809375 C134.2817643965523 37.977460352232, 139.09024177071075 49.3266156841125, 140.97414690230934 60.04787312714649 C142.85805203390794 70.76913057018048, 142.21582714320968 83.13001493119748, 139.2317309944449 93.58410297101331 C136.2476348456801 104.03819101082914, 130.29053698803722 114.79650173435202, 123.06957000972054 122.77240136604142 C115.84860303140387 130.7483009977308, 105.83654665628167 137.6286765811759, 95.90592912454487 141.4395007611497 C85.97531159280807 145.2503249411235, 74.02582687972073 146.79757951672647, 63.48586481929975 145.63734644588413 C52.94590275887877 144.4771133750418, 41.58628216020192 140.36400565125626, 32.66615676201902 134.47810233609565 C23.746031363836124 128.59219902093503, 15.37881223496246 119.68864317027302, 9.965112430202375 110.32192655492047 C4.551412625442288 100.95520993956791, 0.9462453119315354 89.14429046658873, 0.1839579334585011 78.27780264398025 C-0.5783294450145332 67.41131482137177, 1.3410408342375462 55.19101790341951, 5.391388159364169 45.12299961926965 C9.441735484490792 35.05498133511979, 16.479700327451486 25.00987567185599, 24.48604188421824 17.86969293908109 C32.492383440984995 10.729510206306191, 45.66833921750983 5.260185379133773, 53.429437499964685 2.281903222620258 C61.19053578241954 -0.6963789338932571, 68.11543256578358 0.13689615113846543, 71.05263157894736 0 C73.98983059211113 -0.13689615113846543, 71.05263157894737 0.24342105263157277, 71.05263157894737 1.4605263157894655 M71.05263157894737 0 C81.12286280045045 -1.088397581647713, 93.37408364779735 2.8463678384758238, 102.85336175211499 7.722460890610719 C112.33263985643264 12.598553942745614, 121.57483601315417 20.53565627338675, 127.92830020485323 29.256558312809375 C134.2817643965523 37.977460352232, 139.09024177071075 49.3266156841125, 140.97414690230934 60.04787312714649 C142.85805203390794 70.76913057018048, 142.21582714320968 83.13001493119748, 139.2317309944449 93.58410297101331 C136.2476348456801 104.03819101082914, 130.29053698803722 114.79650173435202, 123.06957000972054 122.77240136604142 C115.84860303140387 130.7483009977308, 105.83654665628167 137.6286765811759, 95.90592912454487 141.4395007611497 C85.97531159280807 145.2503249411235, 74.02582687972073 146.79757951672647, 63.48586481929975 145.63734644588413 C52.94590275887877 144.4771133750418, 41.58628216020192 140.36400565125626, 32.66615676201902 134.47810233609565 C23.746031363836124 128.59219902093503, 15.37881223496246 119.68864317027302, 9.965112430202375 110.32192655492047 C4.551412625442288 100.95520993956791, 0.9462453119315354 89.14429046658873, 0.1839579334585011 78.27780264398025 C-0.5783294450145332 67.41131482137177, 1.3410408342375462 55.19101790341951, 5.391388159364169 45.12299961926965 C9.441735484490792 35.05498133511979, 16.479700327451486 25.00987567185599, 24.48604188421824 17.86969293908109 C32.492383440984995 10.729510206306191, 45.66833921750983 5.260185379133773, 53.429437499964685 2.281903222620258 C61.19053578241954 -0.6963789338932571, 68.11543256578358 0.13689615113846543, 71.05263157894736 0 C73.98983059211113 -0.13689615113846543, 71.05263157894737 0.24342105263157277, 71.05263157894737 1.4605263157894655" stroke="none" stroke-width="0" fill="#f4f4f4"></path><path d="M71.05263157894737 0 C81.12286280045045 -1.088397581647713, 93.37408364779735 2.8463678384758238, 102.85336175211499 7.722460890610719 C112.33263985643264 12.598553942745614, 121.57483601315417 20.53565627338675, 127.92830020485323 29.256558312809375 C134.2817643965523 37.977460352232, 139.09024177071075 49.3266156841125, 140.97414690230934 60.04787312714649 C142.85805203390794 70.76913057018048, 142.21582714320968 83.13001493119748, 139.2317309944449 93.58410297101331 C136.2476348456801 104.03819101082914, 130.29053698803722 114.79650173435202, 123.06957000972054 122.77240136604142 C115.84860303140387 130.7483009977308, 105.83654665628167 137.6286765811759, 95.90592912454487 141.4395007611497 C85.97531159280807 145.2503249411235, 74.02582687972073 146.79757951672647, 63.48586481929975 145.63734644588413 C52.94590275887877 144.4771133750418, 41.58628216020192 140.36400565125626, 32.66615676201902 134.47810233609565 C23.746031363836124 128.59219902093503, 15.37881223496246 119.68864317027302, 9.965112430202375 110.32192655492047 C4.551412625442288 100.95520993956791, 0.9462453119315354 89.14429046658873, 0.1839579334585011 78.27780264398025 C-0.5783294450145332 67.41131482137177, 1.3410408342375462 55.19101790341951, 5.391388159364169 45.12299961926965 C9.441735484490792 35.05498133511979, 16.479700327451486 25.00987567185599, 24.48604188421824 17.86969293908109 C32.492383440984995 10.729510206306191, 45.66833921750983 5.260185379133773, 53.429437499964685 2.281903222620258 C61.19053578241954 -0.6963789338932571, 68.11543256578358 0.13689615113846543, 71.05263157894736 0 C73.98983059211113 -0.13689615113846543, 71.05263157894737 0.24342105263157277, 71.05263157894737 1.4605263157894655 M71.05263157894737 0 C81.12286280045045 -1.088397581647713, 93.37408364779735 2.8463678384758238, 102.85336175211499 7.722460890610719 C112.33263985643264 12.598553942745614, 121.57483601315417 20.53565627338675, 127.92830020485323 29.256558312809375 C134.2817643965523 37.977460352232, 139.09024177071075 49.3266156841125, 140.97414690230934 60.04787312714649 C142.85805203390794 70.76913057018048, 142.21582714320968 83.13001493119748, 139.2317309944449 93.58410297101331 C136.2476348456801 104.03819101082914, 130.29053698803722 114.79650173435202, 123.06957000972054 122.77240136604142 C115.84860303140387 130.7483009977308, 105.83654665628167 137.6286765811759, 95.90592912454487 141.4395007611497 C85.97531159280807 145.2503249411235, 74.02582687972073 146.79757951672647, 63.48586481929975 145.63734644588413 C52.94590275887877 144.4771133750418, 41.58628216020192 140.36400565125626, 32.66615676201902 134.47810233609565 C23.746031363836124 128.59219902093503, 15.37881223496246 119.68864317027302, 9.965112430202375 110.32192655492047 C4.551412625442288 100.95520993956791, 0.9462453119315354 89.14429046658873, 0.1839579334585011 78.27780264398025 C-0.5783294450145332 67.41131482137177, 1.3410408342375462 55.19101790341951, 5.391388159364169 45.12299961926965 C9.441735484490792 35.05498133511979, 16.479700327451486 25.00987567185599, 24.48604188421824 17.86969293908109 C32.492383440984995 10.729510206306191, 45.66833921750983 5.260185379133773, 53.429437499964685 2.281903222620258 C61.19053578241954 -0.6963789338932571, 68.11543256578358 0.13689615113846543, 71.05263157894736 0 C73.98983059211113 -0.13689615113846543, 71.05263157894737 0.24342105263157277, 71.05263157894737 1.4605263157894655" stroke="#000000" stroke-width="2" fill="none"></path></g><g stroke-opacity="0.7" fill-opacity="0.7" transform="translate(317.81578947368405 250.60526315789502) rotate(0 43.5 18)"><text x="43.5" y="25" font-family="Virgil, Segoe UI Emoji" font-size="28px" fill="#000000" text-anchor="middle" style="white-space: pre;" direction="ltr">stdio.h</text></g><g stroke-opacity="0.7" fill-opacity="0.7" transform="translate(35.97368421052636 255.21052631579096) rotate(0 38.5 18)"><text x="38.5" y="25" font-family="Virgil, Segoe UI Emoji" font-size="28px" fill="#000000" text-anchor="middle" style="white-space: pre;" direction="ltr">main.c</text></g><g stroke-opacity="0.7" fill-opacity="0.7" transform="translate(148.15789473684197 10) rotate(0 71.05263157894734 73.02631578947353)"><path d="M71.05263157894737 0 C81.12286280045045 -1.088397581647713, 93.37408364779735 2.8463678384758238, 102.85336175211499 7.722460890610719 C112.33263985643264 12.598553942745614, 121.57483601315417 20.53565627338675, 127.92830020485323 29.256558312809375 C134.2817643965523 37.977460352232, 139.09024177071075 49.3266156841125, 140.97414690230934 60.04787312714649 C142.85805203390794 70.76913057018048, 142.21582714320968 83.13001493119748, 139.2317309944449 93.58410297101331 C136.2476348456801 104.03819101082914, 130.29053698803722 114.79650173435202, 123.06957000972054 122.77240136604142 C115.84860303140387 130.7483009977308, 105.83654665628167 137.6286765811759, 95.90592912454487 141.4395007611497 C85.97531159280807 145.2503249411235, 74.02582687972073 146.79757951672647, 63.48586481929975 145.63734644588413 C52.94590275887877 144.4771133750418, 41.58628216020192 140.36400565125626, 32.66615676201902 134.47810233609565 C23.746031363836124 128.59219902093503, 15.37881223496246 119.68864317027302, 9.965112430202375 110.32192655492047 C4.551412625442288 100.95520993956791, 0.9462453119315354 89.14429046658873, 0.1839579334585011 78.27780264398025 C-0.5783294450145332 67.41131482137177, 1.3410408342375462 55.19101790341951, 5.391388159364169 45.12299961926965 C9.441735484490792 35.05498133511979, 16.479700327451486 25.00987567185599, 24.48604188421824 17.86969293908109 C32.492383440984995 10.729510206306191, 45.66833921750983 5.260185379133773, 53.429437499964685 2.281903222620258 C61.19053578241954 -0.6963789338932571, 68.11543256578358 0.13689615113846543, 71.05263157894736 0 C73.98983059211113 -0.13689615113846543, 71.05263157894737 0.24342105263157277, 71.05263157894737 1.4605263157894655 M71.05263157894737 0 C81.12286280045045 -1.088397581647713, 93.37408364779735 2.8463678384758238, 102.85336175211499 7.722460890610719 C112.33263985643264 12.598553942745614, 121.57483601315417 20.53565627338675, 127.92830020485323 29.256558312809375 C134.2817643965523 37.977460352232, 139.09024177071075 49.3266156841125, 140.97414690230934 60.04787312714649 C142.85805203390794 70.76913057018048, 142.21582714320968 83.13001493119748, 139.2317309944449 93.58410297101331 C136.2476348456801 104.03819101082914, 130.29053698803722 114.79650173435202, 123.06957000972054 122.77240136604142 C115.84860303140387 130.7483009977308, 105.83654665628167 137.6286765811759, 95.90592912454487 141.4395007611497 C85.97531159280807 145.2503249411235, 74.02582687972073 146.79757951672647, 63.48586481929975 145.63734644588413 C52.94590275887877 144.4771133750418, 41.58628216020192 140.36400565125626, 32.66615676201902 134.47810233609565 C23.746031363836124 128.59219902093503, 15.37881223496246 119.68864317027302, 9.965112430202375 110.32192655492047 C4.551412625442288 100.95520993956791, 0.9462453119315354 89.14429046658873, 0.1839579334585011 78.27780264398025 C-0.5783294450145332 67.41131482137177, 1.3410408342375462 55.19101790341951, 5.391388159364169 45.12299961926965 C9.441735484490792 35.05498133511979, 16.479700327451486 25.00987567185599, 24.48604188421824 17.86969293908109 C32.492383440984995 10.729510206306191, 45.66833921750983 5.260185379133773, 53.429437499964685 2.281903222620258 C61.19053578241954 -0.6963789338932571, 68.11543256578358 0.13689615113846543, 71.05263157894736 0 C73.98983059211113 -0.13689615113846543, 71.05263157894737 0.24342105263157277, 71.05263157894737 1.4605263157894655" stroke="none" stroke-width="0" fill="#f4f4f4"></path><path d="M71.05263157894737 0 C81.12286280045045 -1.088397581647713, 93.37408364779735 2.8463678384758238, 102.85336175211499 7.722460890610719 C112.33263985643264 12.598553942745614, 121.57483601315417 20.53565627338675, 127.92830020485323 29.256558312809375 C134.2817643965523 37.977460352232, 139.09024177071075 49.3266156841125, 140.97414690230934 60.04787312714649 C142.85805203390794 70.76913057018048, 142.21582714320968 83.13001493119748, 139.2317309944449 93.58410297101331 C136.2476348456801 104.03819101082914, 130.29053698803722 114.79650173435202, 123.06957000972054 122.77240136604142 C115.84860303140387 130.7483009977308, 105.83654665628167 137.6286765811759, 95.90592912454487 141.4395007611497 C85.97531159280807 145.2503249411235, 74.02582687972073 146.79757951672647, 63.48586481929975 145.63734644588413 C52.94590275887877 144.4771133750418, 41.58628216020192 140.36400565125626, 32.66615676201902 134.47810233609565 C23.746031363836124 128.59219902093503, 15.37881223496246 119.68864317027302, 9.965112430202375 110.32192655492047 C4.551412625442288 100.95520993956791, 0.9462453119315354 89.14429046658873, 0.1839579334585011 78.27780264398025 C-0.5783294450145332 67.41131482137177, 1.3410408342375462 55.19101790341951, 5.391388159364169 45.12299961926965 C9.441735484490792 35.05498133511979, 16.479700327451486 25.00987567185599, 24.48604188421824 17.86969293908109 C32.492383440984995 10.729510206306191, 45.66833921750983 5.260185379133773, 53.429437499964685 2.281903222620258 C61.19053578241954 -0.6963789338932571, 68.11543256578358 0.13689615113846543, 71.05263157894736 0 C73.98983059211113 -0.13689615113846543, 71.05263157894737 0.24342105263157277, 71.05263157894737 1.4605263157894655 M71.05263157894737 0 C81.12286280045045 -1.088397581647713, 93.37408364779735 2.8463678384758238, 102.85336175211499 7.722460890610719 C112.33263985643264 12.598553942745614, 121.57483601315417 20.53565627338675, 127.92830020485323 29.256558312809375 C134.2817643965523 37.977460352232, 139.09024177071075 49.3266156841125, 140.97414690230934 60.04787312714649 C142.85805203390794 70.76913057018048, 142.21582714320968 83.13001493119748, 139.2317309944449 93.58410297101331 C136.2476348456801 104.03819101082914, 130.29053698803722 114.79650173435202, 123.06957000972054 122.77240136604142 C115.84860303140387 130.7483009977308, 105.83654665628167 137.6286765811759, 95.90592912454487 141.4395007611497 C85.97531159280807 145.2503249411235, 74.02582687972073 146.79757951672647, 63.48586481929975 145.63734644588413 C52.94590275887877 144.4771133750418, 41.58628216020192 140.36400565125626, 32.66615676201902 134.47810233609565 C23.746031363836124 128.59219902093503, 15.37881223496246 119.68864317027302, 9.965112430202375 110.32192655492047 C4.551412625442288 100.95520993956791, 0.9462453119315354 89.14429046658873, 0.1839579334585011 78.27780264398025 C-0.5783294450145332 67.41131482137177, 1.3410408342375462 55.19101790341951, 5.391388159364169 45.12299961926965 C9.441735484490792 35.05498133511979, 16.479700327451486 25.00987567185599, 24.48604188421824 17.86969293908109 C32.492383440984995 10.729510206306191, 45.66833921750983 5.260185379133773, 53.429437499964685 2.281903222620258 C61.19053578241954 -0.6963789338932571, 68.11543256578358 0.13689615113846543, 71.05263157894736 0 C73.98983059211113 -0.13689615113846543, 71.05263157894737 0.24342105263157277, 71.05263157894737 1.4605263157894655" stroke="#000000" stroke-width="2" fill="none"></path></g><g stroke-opacity="0.7" fill-opacity="0.7" transform="translate(180.21052631578937 65.0263157894733) rotate(0 39 18)"><text x="39" y="25" font-family="Virgil, Segoe UI Emoji" font-size="28px" fill="#000000" text-anchor="middle" style="white-space: pre;" direction="ltr">Linker</text></g><g><g stroke-opacity="0.7" fill-opacity="0.7" transform="translate(163.9473684210525 133.0263157894742) rotate(0 -29.605263157894683 37.5)"><path d="M0 0 C-9.868421052631561 12.5, -49.342105263157805 62.5, -59.210526315789366 75 M0 0 C-9.868421052631561 12.5, -49.342105263157805 62.5, -59.210526315789366 75" stroke="#000000" stroke-width="2" fill="none"></path></g><g stroke-opacity="0.7" fill-opacity="0.7" transform="translate(163.9473684210525 133.0263157894742) rotate(0 -29.605263157894683 37.5)"><path d="M-49.79564282994189 46.515618859664215 C-51.76629522416252 52.47775466054534, -53.73694761838315 58.43989046142646, -59.210526315789366 75 M-49.79564282994189 46.515618859664215 C-52.39109417534915 54.36806073692268, -54.98654552075642 62.22050261418114, -59.210526315789366 75" stroke="#000000" stroke-width="2" fill="none"></path></g><g stroke-opacity="0.7" fill-opacity="0.7" transform="translate(163.9473684210525 133.0263157894742) rotate(0 -29.605263157894683 37.5)"><path d="M-33.688899872246495 59.231468563107924 C-39.030894208233235 62.53201862048949, -44.372888544219975 65.83256867787105, -59.210526315789366 75 M-33.688899872246495 59.231468563107924 C-40.724583297266854 63.578464061724475, -47.76026672228722 67.92545956034104, -59.210526315789366 75" stroke="#000000" stroke-width="2" fill="none"></path></g></g><g><g stroke-opacity="0.7" fill-opacity="0.7" transform="translate(274.47368421052624 130.39473684210589) rotate(0 25.65789473684208 35.526315789473756)"><path d="M0 0 C8.552631578947361 11.842105263157919, 42.7631578947368 59.21052631578959, 51.31578947368416 71.05263157894751 M0 0 C8.552631578947361 11.842105263157919, 42.7631578947368 59.21052631578959, 51.31578947368416 71.05263157894751" stroke="#000000" stroke-width="2" fill="none"></path></g><g stroke-opacity="0.7" fill-opacity="0.7" transform="translate(274.47368421052624 130.39473684210589) rotate(0 25.65789473684208 35.526315789473756)"><path d="M26.492296107408137 54.20643981064419 C33.47962743419306 58.94831565152028, 40.46695876097799 63.690191492396366, 51.31578947368416 71.05263157894751 M26.492296107408137 54.20643981064419 C34.805279122325814 59.84795464377424, 43.11826213724349 65.48946947690428, 51.31578947368416 71.05263157894751" stroke="#000000" stroke-width="2" fill="none"></path></g><g stroke-opacity="0.7" fill-opacity="0.7" transform="translate(274.47368421052624 130.39473684210589) rotate(0 25.65789473684208 35.526315789473756)"><path d="M43.12841366071635 42.19146602214385 C45.43300095864401 50.31532366163907, 47.73758825657166 58.43918130113428, 51.31578947368416 71.05263157894751 M43.12841366071635 42.19146602214385 C45.87023227043766 51.85659959236014, 48.612050880158975 61.52173316257644, 51.31578947368416 71.05263157894751" stroke="#000000" stroke-width="2" fill="none"></path></g></g><g stroke-opacity="0.7" fill-opacity="0.7" transform="translate(180.15789473684208 516.3421052631584) rotate(0 43 18)"><text x="43" y="25" font-family="Virgil, Segoe UI Emoji" font-size="28px" fill="#000000" text-anchor="middle" style="white-space: pre;" direction="ltr">Binary</text></g></svg>