<svg version="1.1" xmlns="http://www.w3.org/2000/svg" viewBox="0 0 518.2105263157895 423.2894736842105" width="518.2105263157895" height="423.2894736842105">
  <!-- svg-source:excalidraw -->
  
  <defs>
    <style>
      @font-face {
        font-family: "Virgil";
        src: url("https://excalidraw.com/FG_Virgil.woff2");
      }
      @font-face {
        font-family: "Cascadia";
        src: url("https://excalidraw.com/Cascadia.woff2");
      }
    </style>
  </defs>
  <rect x="0" y="0" width="518.2105263157895" height="423.2894736842105" fill="#ffffff"></rect><g stroke-opacity="0.7" fill-opacity="0.7" transform="translate(10 10) rotate(0 113.5 18)"><text x="113.5" y="25" font-family="Virgil, Segoe UI Emoji" font-size="28px" fill="#000000" text-anchor="middle" style="white-space: pre;" direction="ltr">Struct (8-bytes)</text></g><g stroke-opacity="0.7" fill-opacity="0.7" transform="translate(307.2105263157895 10) rotate(0 100.5 18)"><text x="100.5" y="25" font-family="Virgil, Segoe UI Emoji" font-size="28px" fill="#000000" text-anchor="middle" style="white-space: pre;" direction="ltr">Union (4-bytes)</text></g><g stroke-opacity="0.7" fill-opacity="0.7" transform="translate(35.34210526315792 63.28947368421052) rotate(0 90.78947368421052 175)"><path d="M0 0 L181.57894736842104 0 L181.57894736842104 350 L0 350" stroke="none" stroke-width="0" fill="#f4f4f4"></path><path d="M0 0 C43.59435473887348 0, 87.18870947774695 0, 181.57894736842104 0 M0 0 C67.97272058032257 0, 135.94544116064515 0, 181.57894736842104 0 M181.57894736842104 0 C181.57894736842104 76.07724134344609, 181.57894736842104 152.15448268689218, 181.57894736842104 350 M181.57894736842104 0 C181.57894736842104 84.98233455698937, 181.57894736842104 169.96466911397874, 181.57894736842104 350 M181.57894736842104 350 C131.99545532195387 350, 82.41196327548668 350, 0 350 M181.57894736842104 350 C137.78621254660385 350, 93.99347772478664 350, 0 350 M0 350 C0 213.4583344636485, 0 76.916668927297, 0 0 M0 350 C0 262.9572607250884, 0 175.9145214501768, 0 0" stroke="#000000" stroke-width="2" fill="none"></path></g><g stroke-opacity="0.7" fill-opacity="0.7" transform="translate(35.34210526315775 64.6052631578948) rotate(0 88.81578947368425 85.5263157894737)"><path d="M0 0 L177.6315789473685 0 L177.6315789473685 171.0526315789474 L0 171.0526315789474" stroke="none" stroke-width="0" fill="#d4d4a4"></path><path d="M0 0 C50.131042059633515 0, 100.26208411926703 0, 177.6315789473685 0 M0 0 C48.18392536835747 0, 96.36785073671494 0, 177.6315789473685 0 M177.6315789473685 0 C177.6315789473685 51.662431660990585, 177.6315789473685 103.32486332198117, 177.6315789473685 171.0526315789474 M177.6315789473685 0 C177.6315789473685 66.3777753870052, 177.6315789473685 132.7555507740104, 177.6315789473685 171.0526315789474 M177.6315789473685 171.0526315789474 C113.41238896987454 171.0526315789474, 49.19319899238059 171.0526315789474, 0 171.0526315789474 M177.6315789473685 171.0526315789474 C129.6846087464426 171.0526315789474, 81.7376385455167 171.0526315789474, 0 171.0526315789474 M0 171.0526315789474 C0 112.52101063360706, 0 53.989389688266726, 0 0 M0 171.0526315789474 C0 119.35096773637558, 0 67.64930389380376, 0 0" stroke="#000000" stroke-width="2" fill="none"></path></g><g stroke-opacity="0.7" fill-opacity="0.7" transform="translate(37.31578947368419 239.60526315789474) rotate(0 88.81578947368425 85.5263157894737)"><path d="M0 0 L177.6315789473685 0 L177.6315789473685 171.0526315789474 L0 171.0526315789474" stroke="none" stroke-width="0" fill="#ababab"></path><path d="M0 0 C63.62688834840239 0, 127.25377669680478 0, 177.6315789473685 0 M0 0 C51.76513920182757 0, 103.53027840365515 0, 177.6315789473685 0 M177.6315789473685 0 C177.6315789473685 67.81336963544356, 177.6315789473685 135.62673927088713, 177.6315789473685 171.0526315789474 M177.6315789473685 0 C177.6315789473685 53.92964232933562, 177.6315789473685 107.85928465867124, 177.6315789473685 171.0526315789474 M177.6315789473685 171.0526315789474 C135.1340712752733 171.0526315789474, 92.63656360317809 171.0526315789474, 0 171.0526315789474 M177.6315789473685 171.0526315789474 C132.00762021220538 171.0526315789474, 86.38366147704228 171.0526315789474, 0 171.0526315789474 M0 171.0526315789474 C0 103.11987329102858, 0 35.18711500310977, 0 0 M0 171.0526315789474 C0 133.5445105085934, 0 96.03638943823938, 0 0" stroke="#000000" stroke-width="2" fill="none"></path></g><g stroke-opacity="0.7" fill-opacity="0.7" transform="translate(40.157894736841996 132.1315789473685) rotate(0 84 18)"><text x="84" y="25" font-family="Virgil, Segoe UI Emoji" font-size="28px" fill="#000000" text-anchor="middle" style="white-space: pre;" direction="ltr">4-byte float</text></g><g stroke-opacity="0.7" fill-opacity="0.7" transform="translate(59.13157894736844 307.13157894736844) rotate(0 67 18)"><text x="67" y="25" font-family="Virgil, Segoe UI Emoji" font-size="28px" fill="#000000" text-anchor="middle" style="white-space: pre;" direction="ltr">4-byte int</text></g><g stroke-opacity="0.7" fill-opacity="0.7" transform="translate(317.57894736842104 67.23684210526318) rotate(0 88.81578947368426 85.5263157894737)"><path d="M0 0 L177.6315789473685 0 L177.6315789473685 171.0526315789474 L0 171.0526315789474" stroke="none" stroke-width="0" fill="#e0bbe4"></path><path d="M0 0 C53.83212840196826 0, 107.66425680393652 0, 177.6315789473685 0 M0 0 C41.22431081854495 0, 82.4486216370899 0, 177.6315789473685 0 M177.6315789473685 0 C177.6315789473685 36.87833414633612, 177.6315789473685 73.75666829267225, 177.6315789473685 171.0526315789474 M177.6315789473685 0 C177.6315789473685 47.416425943619736, 177.6315789473685 94.83285188723947, 177.6315789473685 171.0526315789474 M177.6315789473685 171.0526315789474 C121.97863119102922 171.0526315789474, 66.32568343468994 171.0526315789474, 0 171.0526315789474 M177.6315789473685 171.0526315789474 C133.8591078032838 171.0526315789474, 90.08663665919912 171.0526315789474, 0 171.0526315789474 M0 171.0526315789474 C0 113.87362934673502, 0 56.69462711452262, 0 0 M0 171.0526315789474 C0 121.92025183038297, 0 72.78787208181855, 0 0" stroke="#000000" stroke-width="2" fill="none"></path></g><g stroke-opacity="0.7" fill-opacity="0.7" transform="translate(320.3421052631578 98.81578947368416) rotate(0 91 53.5)"><text x="91" y="24.666666666666664" font-family="Virgil, Segoe UI Emoji" font-size="28px" fill="#000000" text-anchor="middle" style="white-space: pre;" direction="ltr">4-byte float </text><text x="91" y="60.33333333333333" font-family="Virgil, Segoe UI Emoji" font-size="28px" fill="#000000" text-anchor="middle" style="white-space: pre;" direction="ltr">or </text><text x="91" y="96" font-family="Virgil, Segoe UI Emoji" font-size="28px" fill="#000000" text-anchor="middle" style="white-space: pre;" direction="ltr">4-byte int</text></g></svg>